<?xml version="1.0" encoding="utf-8"?>
<!-- Generator: Adobe Illustrator 20.0.0, SVG Export Plug-In . SVG Version: 6.00 Build 0)  -->
<svg version="1.1" id="Layer_1" xmlns="http://www.w3.org/2000/svg" xmlns:xlink="http://www.w3.org/1999/xlink" x="0px" y="0px"
	 viewBox="0 0 283.5 70.9" style="enable-background:new 0 0 283.5 70.9;" xml:space="preserve">
<style type="text/css">
	.st0{fill:#FFFFFF;}
</style>
<g>
	<path class="st0" d="M9,13.7V25c0,0.3,0.1,1,0.2,1.4C10.9,32.3,21,30,27.5,39.9c0,0,1.2,0.1,2.1-1.5c0,0-1.7-0.1-1.8-1.5
		c0,0,3.6,0.8,5.7,2.6c0,0,0,0.8-2.5,0.8c-0.5,0-0.7,0.1-1.5,0.9c0,0-2,2.3-4,2.3c-0.6,0-1.1-0.3-1.1-0.5c0,0-0.1-0.3,0.4-0.2
		c0,0,1.1,0.3,1.6-0.2c0,0-0.5-0.7-1.3-0.7c-0.5,0-1,0.1-1.3,0.6c0,0-1.6,2.1,3,4.4c6.7,3.1,10.4,7.7,9.8,8.8
		c-0.6-0.5-6.1-7.7-15.4-8.5c0,0,0-0.2,0.1-0.4c1-5-1.2-8.3-3.7-10.2c-2.5-2.1-7.2-3.9-8.6-8.6v29.2h44.5L9,13.7z"/>
	<path class="st0" d="M163.1,42.6h-5c0.3-0.3,0.5-0.6,0.8-0.9c4.9-5.6,5.8-5.2,5.8-5.2L163.1,42.6z M173.7,31.7
		c-2-0.3-10.7-2.3-17.9,5.4c-5.9,6.3-12.9,13.5-12.9,13.5h8c0,0,1-1,2.9-3.2h8.3l-0.7,3.2h8.2L173.7,31.7z M89.3,42.6h-5
		c0.3-0.3,0.5-0.6,0.8-0.9c4.9-5.6,5.8-5.2,5.8-5.2L89.3,42.6z M99.9,31.7c-2-0.3-10.7-2.3-17.9,5.4c-5.9,6.3-12.9,13.5-12.9,13.5h8
		c0,0,1-1,2.9-3.2h8.3l-0.7,3.2h8.2L99.9,31.7z M128.9,31.5c-3.4,0-5.7,1.4-7.2,4.1l-2.9,5.4l-4-9.4h-1.6c-3.4,0-6.8,2.5-8.4,5.5
		l-7.5,13.6h7.8l5.1-9.3l3.9,9.3h7l10.4-19.1L128.9,31.5z M64.2,41.2c-2,3.2-4.2,5.5-7.1,5.3c-3.4-0.2-2.4-2.8-0.6-5.4
		c2.1-3.1,4.7-5.7,7.6-5.6C67.4,35.7,66.2,38,64.2,41.2 M66.1,31.1c-9.8,0-16.1,5.4-18.7,10.2c-2.5,4.7-0.1,10.3,9.4,9.9
		c0,0,1.9,2.6,5.9,2.8c3.9,0.1,6.4-3.4,6.4-3.4s-1.3,0.5-2.8,0.3c-1.8-0.2-2.4-1.3-2.4-1.3c5.2-2.3,8.2-5.2,9.9-8.3
		C76.3,36.4,75.9,31.1,66.1,31.1 M138,31.5c-3.4,0-5.8,1.6-6.9,3.5l-0.9,1.6h7.8l-7.6,13.9h8.5l7.6-13.9l2.4-0.1
		c3.1,0,5.8-1.6,6.9-3.5l0.8-1.5H138z M186.8,37.5c-0.8-0.2-1.1-0.3-1.3-0.7c-0.3-0.4,0.3-1.2,2-1.2c2.1,0.1,3.3,0.4,4.7,0.4
		c1,0,3.8-0.4,5.5-3.5c0,0-4.1-1.6-8.2-1.7c-5.9-0.2-12.7,1.9-13.2,6.3c-0.4,3.7,3.3,5.1,7.2,6.4c1.9,0.7,2.7,0.9,2.6,1.5
		c-0.1,0.2-0.4,0.9-3.2,0.9c-4.4-0.1-7.6-1.9-7.6-1.9l-4.6,4c0,0,3.4,2.7,10.8,2.8c7.4,0.1,13.3-2.8,13.9-7.1
		C195.6,40.9,192.9,39.3,186.8,37.5 M203.8,49.6c-0.4,1.1-1.6,1.8-2.7,1.8c-0.2,0-0.7,0-1.1-0.2c-0.6-0.2-1.8-1-1.8-2.7
		c0-0.6,0.1-0.9,0.2-1.1c0.2-0.6,1-1.8,2.8-1.8c1.6,0,2.9,1.2,2.9,2.8C204,48.6,204,49.2,203.8,49.6z M222.6,37.2
		c-1.6-1-2.7-1.7-4.9-1.7c-3.8,0-6.3,2.6-6.9,6.3c-0.5,3.5,1.3,6,5,6c2.2,0,3.8-0.8,5.8-1.9l-0.6,3.9c-0.5,0.2-0.9,0.5-1.4,0.7
		c-0.7,0.3-2.5,0.9-4.6,0.9c-1.1,0-3.7-0.2-5.7-2.1c-1.1-1-3.1-3.5-2.4-7.7c0.2-1.3,0.6-2.7,1.3-4c1-1.9,3.9-5.9,9.7-5.9
		c2.7,0,4.4,0.9,5.3,1.4L222.6,37.2z M241.6,47.5c-1.1,1.2-4.1,4-8.6,4c-1.8,0-3.2-0.5-3.8-0.8c-3.4-1.6-5.4-5.2-4.8-9.1
		c0.1-0.7,0.4-2.2,1.4-4c2.1-3.6,6-5.8,10-5.8c5.6,0,9.4,4.5,8.6,10C244.2,43,243.7,45.2,241.6,47.5z M240.5,39.1
		c-1-3.2-4.1-3.7-5.3-3.7c-0.4,0-1.2,0-2.2,0.4c-2.5,0.9-4.6,3.2-5,5.8c-0.1,0.4-0.1,1.3,0.1,2.2c0.6,2.4,2.7,4,5.3,4
		c0.8,0,3-0.2,4.9-2c1.2-1.1,2-2.7,2.3-4.2C240.8,41.2,240.9,40.2,240.5,39.1z M269.1,51l1.3-9.5c0.3-2.3,0.4-3.5,0-4.5
		c-0.2-0.5-0.8-1.6-2.5-1.6s-3.3,1.1-4.6,2.1l-1.9,13.4h-3.9l1.5-10.3c0.1-0.9,0.3-2.2,0.1-2.9c-0.2-1.4-1.2-2.2-2.6-2.2
		c-0.7,0-2,0.3-3.5,1.2c-0.4,0.2-0.8,0.5-1.2,0.8L249.9,51H246l2.6-18.7h3.9l-0.2,1.6c0.4-0.3,0.8-0.6,1.2-0.8
		c0.7-0.4,2.4-1.2,4.4-1.2c0.8,0,2.2,0.1,3.6,1.3c0.4,0.4,0.6,0.7,1.2,1.5c2.1-1.6,3.8-2.8,6.5-2.8c1,0,3.4,0.2,4.7,2.5
		c1.1,1.9,0.8,4.2,0.4,6.5L273,51H269.1z"/>
</g>
</svg>
