<?xml version="1.0" encoding="utf-8"?>
<!-- Generator: Adobe Illustrator 20.0.0, SVG Export Plug-In . SVG Version: 6.00 Build 0)  -->
<svg version="1.1" id="Layer_1" xmlns="http://www.w3.org/2000/svg" xmlns:xlink="http://www.w3.org/1999/xlink" x="0px" y="0px"
	 viewBox="0 0 90 90" style="enable-background:new 0 0 90 90;" xml:space="preserve">
<style type="text/css">
	.st0{fill:#FFFFFF;}
</style>
<g>
	<path class="st0" d="M378,0c-24.9,0-45,20.1-45,45s20.1,45,45,45s45-20.1,45-45S402.9,0,378,0z M378,86.5
		c-22.9,0-41.5-18.7-41.5-41.5c0-22.9,18.7-41.5,41.5-41.5s41.5,18.6,41.5,41.5S400.9,86.5,378,86.5z"/>
	<g>
		<circle class="st0" cx="378" cy="32.3" r="11.5"/>
		<path class="st0" d="M378,46.9c-13,0-21.5,8.8-24.6,22.3H378h24.6C399.5,55.7,391,46.9,378,46.9z"/>
	</g>
</g>
<g>
	<g>
		<circle class="st0" cx="45" cy="20.7" r="20.7"/>
		<path class="st0" d="M84.3,90.5c-5-21.6-18.5-41-39.3-41s-34.3,19.4-39.3,41H84.3z"/>
	</g>
</g>
</svg>
